<?xml version="1.0" encoding="UTF-8"?><svg id="Wortmarke" xmlns="http://www.w3.org/2000/svg" viewBox="0 0 182.83 95.65"><defs><style>.cls-1{fill:#7e898f;}.cls-2{fill-rule:evenodd;}.cls-2,.cls-3{fill:#1d1d1b;}.cls-4{fill:none;}</style></defs><g><g><polygon class="cls-3" points="143.94 40.35 148.65 40.35 148.65 38.35 137.12 38.35 137.12 40.35 141.78 40.35 141.78 57.68 143.94 57.68 143.94 40.35"/><rect class="cls-3" x="126.83" y="38.36" width="2.15" height="19.33"/><path class="cls-2" d="m94.23,52.2h-8.25l-2.33,5.49h-2.36l8.51-19.33.41-.9.39.9,8.29,19.33h-2.38l-2.28-5.49Zm-.85-2l-3.23-7.74-3.31,7.74h6.54"/><path class="cls-2" d="m108.12,40.35v6.95h2.7c2.49,0,4.2-1.14,4.2-3.6s-2-3.35-4.22-3.35h-2.67Zm5.09,8.55l4.7,8.78h-2.5l-4.39-8.49h-2.9v8.49h-2.15v-19.33h5.1c3.18,0,6.1,1.45,6.1,5.35,0,3.08-1.95,4.62-3.96,5.21"/><polygon class="cls-3" points="156.44 57.68 166.9 57.68 166.9 55.68 158.6 55.68 158.6 48.1 165.72 48.1 165.72 46.1 158.6 46.1 158.6 40.35 166.59 40.35 166.59 38.35 156.44 38.35 156.44 57.68"/><polygon class="cls-3" points="162.58 31.33 159.53 35.53 160.81 36.25 164.73 32.3 162.58 31.33"/><polygon class="cls-3" points="62.26 46.2 68.82 46.2 68.82 48.2 62.26 48.2 62.26 57.68 60.1 57.68 60.1 38.35 62.26 38.35 62.26 46.2"/><rect class="cls-3" x="71.76" y="38.36" width="2.15" height="19.33"/><path class="cls-3" d="m51.62,39.84c-1.7-1.27-3.58-1.88-5.71-1.88-6.28,0-10.21,4.69-10.21,10.13s3.96,9.98,10.21,9.98c2.03,0,4.06-.69,5.71-1.88v-2.59c-1.53,1.53-3.61,2.52-5.78,2.52-4.7,0-7.8-3.88-7.8-8.11s3.04-8.11,7.75-8.11c2.22,0,4.3.94,5.83,2.52v-2.59"/></g><path class="cls-1" d="m16.1,48.02c0-15.4,12.4-27.88,28.11-27.88,6.88,0,13.18,2.49,18.04,6.62v4.29c-4.49-4.76-10.85-7.73-17.91-7.73-13.77,0-24.53,11.02-24.53,24.61s10.77,24.61,24.53,24.61c7.06,0,13.42-2.97,17.91-7.73v4.46c-4.86,4.13-11.16,6.62-18.04,6.62-15.7,0-28.11-12.48-28.11-27.88"/></g><rect class="cls-4" width="182.83" height="95.65"/></svg>