<?xml version="1.0" encoding="UTF-8"?>
<svg xmlns="http://www.w3.org/2000/svg" width="241" height="47" viewBox="0 0 110 21.45"><g fill="#e30040"><polygon points="27.71 4.14 27.71 17.34 23.43 17.34 23.43 12.65 18.21 12.65 18.21 17.34 13.92 17.34 13.92 4.14 18.21 4.14 18.21 8.98 23.43 8.98 23.43 4.14 27.71 4.14"/><path d="M83.96,17.34h-4.65v-2.83c0-.36-.08-.66-.26-.97-1.81-3.13-3.62-6.27-5.43-9.4h4.9c.98,1.7,1.97,3.4,2.95,5.11,.1,.17,.24,.17,.34,0,.98-1.7,1.97-3.4,2.95-5.11h4.9c-1.81,3.13-3.62,6.27-5.43,9.4-.18,.31-.26,.61-.26,.97v2.83Z"/><polygon points="42.06 7.22 42.06 4.14 29.63 4.14 29.63 17.34 42.37 17.34 42.37 14.23 33.92 14.23 33.92 12.24 39.3 12.24 39.3 9.35 33.92 9.35 33.92 7.22 42.06 7.22"/><path d="M7.51,13.95h4.7v3.38H6.6c-3.64,0-6.6-2.95-6.6-6.6S2.96,4.14,6.6,4.14c2.27,0,3.4,0,5.61,0v3.39H7.51c-1.77,0-3.21,1.44-3.21,3.21s1.44,3.21,3.21,3.21m48.49-1.15c3.75-2.73,1.82-8.66-2.81-8.66h-9.13v13.2h4.04v-3.43h3.09c.82,0,1.3,.28,1.71,.99,.35,.61,.7,1.22,1.05,1.83,.26,.45,.55,.62,1.07,.62h3.39c-.8-1.51-1.61-3.02-2.41-4.54m-3.8-2.11h-4.1v-3.52h4.1c.97,0,1.76,.79,1.76,1.76s-.79,1.76-1.76,1.76m19.6,2.11c3.75-2.73,1.82-8.66-2.82-8.66h-9.12v13.2h4.04v-3.43h3.09c.82,0,1.3,.28,1.71,.99,.35,.61,.7,1.22,1.05,1.83,.26,.45,.55,.62,1.07,.62h3.39c-.8-1.51-1.61-3.02-2.41-4.54m-3.8-2.11h-4.1v-3.52h4.1c.97,0,1.76,.79,1.76,1.76s-.79,1.76-1.76,1.76"/><path d="M96.52,16.02s0,.08-.01,.12c-.11,1.46,.42,2.9,1.47,3.92,1.05,1.03,2.5,1.51,3.96,1.37,1.46-.15,2.77-.91,3.59-2.12,.82-1.21,1.07-2.73,.66-4.14-.02,0-.04-.02-.06-.03-.38-.2-.75-.41-1.11-.64-.35-.22-.7-.46-1.03-.71-.24-.19-.48-.38-.71-.58-.3-.27-.59-.56-.87-.86-.73,1.93-2.44,3.32-4.47,3.64-.48,.07-.95,.09-1.44,.04"/><path d="M103.72,3.49c.86,2.26,1.68,4.3,2.63,6.53-.14,.04-.28-.02-.35-.15-1.13-2.1-2.11-4.12-3.03-6.32-.1-.23-.19-.47-.29-.7-.05-.12-.1-.24-.14-.36-.01-.03-.02-.06-.04-.09-.02-.04-.02-.08,0-.12,0-.02,.02-.03,.03-.04,0-.01,.02-.02,.03-.03,.07-.1,.13-.21,.18-.32,.09-.23,.12-.49,.08-.74-.08-.5-.43-.91-.91-1.08-.48-.17-1.01-.07-1.38,.27-.38,.33-.55,.85-.44,1.34,0,.03,.02,.06,.03,.1v.02l.02,.03s0,.09-.03,.13l-.04,.04c-.05,.05-.09,.11-.14,.16-.09,.11-.18,.22-.27,.33-.18,.22-.35,.45-.51,.68-.33,.47-.63,.95-.91,1.45-.07,.13-.14,.25-.2,.38-.03,.06-.07,.13-.1,.19-.02,.03-.03,.06-.05,.1v.02s-.03,.03-.04,.04c-.03,.04-.08,.05-.13,.05-.02,0-.04,0-.05,0-.26-.03-.53-.04-.79-.03-.55,.02-1.09,.13-1.6,.33-1.12,.44-2.04,1.27-2.6,2.34-.53,1.03-.69,2.21-.44,3.34,.26,1.2,.96,2.26,1.96,2.97,.93,.66,2.05,.98,3.18,.91,1.23-.08,2.39-.61,3.25-1.49,.79-.81,1.27-1.86,1.38-2.98,.11-1.17-.19-2.33-.86-3.29-.32-.47-.73-.87-1.19-1.2-.22-.16-.44-.29-.68-.41-.06-.03-.12-.06-.17-.08-.02,0-.04-.02-.06-.03-.04-.03-.06-.08-.05-.13,0-.02,0-.04,.02-.06,0-.02,.02-.03,.02-.05,.02-.03,.03-.06,.05-.09,.06-.12,.13-.25,.2-.37,.27-.49,.57-.96,.91-1.42,.16-.23,.34-.44,.51-.66,.04-.05,.09-.11,.13-.16,.01-.01,.02-.03,.03-.04l.02-.02v-.02s.1-.05,.15-.04c.01,0,.03,0,.04,.01h.03s.04,.02,.05,.02c.04,0,.07,.01,.11,.02,.02,0,.04,0,.05,0h.02c.05,0,.09,.04,.12,.09,0,.02,.02,.04,.03,.06l.02,.05c.06,.14,.13,.28,.19,.42,.02,.04,.03,.07,.05,.1,0,.02,.02,.04,.02,.05,.01,.03,.03,.05,.03,.08,0,.03,0,.05,0,.07,0,.02-.02,.04-.02,.05-.01,.03-.03,.06-.04,.09-.03,.06-.05,.12-.08,.19-.1,.24-.19,.49-.26,.74-.15,.48-.25,.97-.31,1.47,1.38,1.36,1.98,3.32,1.6,5.22,1.71,2.12,4.4,3.45,6.85,4.28,.55-2.37,.74-5.18-.15-7.57-.46-1.22-1.18-2.27-2.2-3.08-1.02-.81-2.22-1.3-3.46-1.59"/></g></svg>