<?xml version="1.0" encoding="UTF-8"?>
<svg xmlns="http://www.w3.org/2000/svg" xmlns:xlink="http://www.w3.org/1999/xlink" version="1.1" id="Ebene_1" x="0px" y="0px" viewBox="0 0 184.7 108" style="enable-background:new 0 0 184.7 108;" xml:space="preserve"> <style type="text/css"> .st0{fill-rule:evenodd;clip-rule:evenodd;fill:#FFFFFF;} .st1{fill:#FFFFFF;} </style> <rect width="100%" height="100%" fill="#f80"/>
<g xmlns="http://www.w3.org/2000/svg"> <path class="st0" d="M74.9,85.6h1.8c0.3,0,1.2,0,1.9,0.5c0.7,0.5,0.9,1.4,0.9,2.2c0,1.7-0.9,2.6-2,2.8c-0.2,0-0.4,0.1-1,0.1h-1.7 L74.9,85.6L74.9,85.6z M76.1,90.2c0.1,0,0.3,0,0.5,0c0.5,0,0.9,0,1.3-0.4c0.5-0.5,0.5-1.3,0.5-1.6c0-0.8-0.3-1.5-1-1.7 c-0.2-0.1-0.6-0.1-1.2-0.1v3.8H76.1z M81.5,88.2c0-0.2,0-0.7-0.1-1h1.1v0.7c0.1-0.3,0.4-0.8,1.3-0.7v1c-1.1-0.1-1.2,0.5-1.2,1v1.9 h-1.1L81.5,88.2L81.5,88.2z M84.9,90.1h1v1h-1V90.1L84.9,90.1z M91.3,85.6H95v0.9h-2.5v1.3h2.3v0.9h-2.3v1.5H95v0.9h-3.8v-5.5H91.3 z M99,88.6c0-0.1-0.1-0.7-0.5-0.7c-0.5,0-0.6,0.8-0.6,1.2c0,0.2,0,0.9,0.3,1.2c0.1,0.1,0.2,0.1,0.3,0.1c0.1,0,0.5-0.1,0.5-0.7h1.1 c0,0.3-0.1,0.8-0.5,1.1c-0.3,0.2-0.6,0.4-1.1,0.4s-1-0.1-1.3-0.5s-0.5-0.9-0.5-1.5c0-1.8,1.3-2,1.8-2c0.7,0,1.6,0.4,1.6,1.4H99 L99,88.6z M101.8,85.6h1.1v3.2l1.2-1.6h1.3l-1.3,1.7l1.4,2.2h-1.3L103,89v2.1h-1.1L101.8,85.6L101.8,85.6z M107.8,89.5 c0,0.3,0,1,0.8,1c0.3,0,0.6-0.1,0.7-0.5h1c0,0.2-0.1,0.5-0.4,0.8s-0.8,0.4-1.3,0.4c-0.3,0-1-0.1-1.4-0.5s-0.5-0.9-0.5-1.5 s0.2-1.4,0.8-1.8c0.3-0.2,0.7-0.3,1.1-0.3c0.5,0,1.2,0.2,1.6,0.9c0.3,0.5,0.2,1.1,0.2,1.4L107.8,89.5L107.8,89.5z M109.3,88.7 c0-0.2,0-0.9-0.7-0.9c-0.5,0-0.7,0.4-0.7,0.9H109.3L109.3,88.7z M112.3,88.2c0-0.2,0-0.7-0.1-1h1.1v0.7c0.1-0.3,0.4-0.8,1.3-0.7v1 c-1.1-0.1-1.2,0.5-1.2,1v1.9h-1.1L112.3,88.2L112.3,88.2z M116.1,87.9c0,0,0-0.4,0-0.7h1.1v0.6c0.1-0.2,0.4-0.7,1.2-0.7 c0.8,0,1.1,0.5,1.2,0.7s0.1,0.4,0.1,1.2v2.1h-1.2v-2.4c0-0.2,0-0.3-0.1-0.4c-0.1-0.2-0.3-0.3-0.5-0.3s-0.5,0.1-0.6,0.3 c-0.1,0.1-0.1,0.3-0.1,0.6v2.3h-1.1V87.9L116.1,87.9z M121.9,85.6h1.1v3.2l1.2-1.6h1.3l-1.3,1.7l1.4,2.2h-1.3L123,89v2.1h-1.1V85.6 L121.9,85.6z M129.5,91.1c0-0.2,0-0.4,0-0.5c-0.4,0.6-0.9,0.6-1.2,0.6c-0.6,0-0.8-0.2-1-0.3c-0.2-0.2-0.3-0.5-0.3-0.8 s0.1-0.9,0.8-1.2c0.5-0.2,1.2-0.2,1.5-0.2c0-0.2,0-0.4-0.1-0.5c-0.1-0.3-0.4-0.3-0.5-0.3c-0.2,0-0.3,0.1-0.4,0.2 c-0.1,0.1-0.1,0.3-0.1,0.3h-1.1c0-0.2,0-0.6,0.4-0.9c0.4-0.2,0.8-0.3,1.2-0.3c0.3,0,1,0.1,1.4,0.5c0.3,0.3,0.3,0.8,0.3,0.9v1.5 c0,0.3,0,0.7,0.1,1L129.5,91.1L129.5,91.1z M128.1,89.9c0,0.3,0.2,0.5,0.5,0.5c0.2,0,0.4-0.1,0.5-0.2c0.2-0.2,0.2-0.5,0.2-1 C128.6,89.2,128.1,89.4,128.1,89.9L128.1,89.9z M132.6,88c0-0.2,0-0.5,0-0.7h1.1v0.5c0.1-0.2,0.4-0.6,1.2-0.6 c0.9,0,1.1,0.5,1.2,0.7c0.3-0.6,0.8-0.7,1.2-0.7c0.8,0,1.1,0.5,1.2,0.6c0.2,0.3,0.2,0.8,0.2,1.1v2.2h-1.1v-2.3 c0-0.4-0.1-0.9-0.6-0.9c-0.7,0-0.7,0.6-0.7,1.2V91H135v-2.3c0-0.3,0-0.8-0.6-0.8c-0.7,0-0.7,0.6-0.7,0.9v2.3h-1.1L132.6,88 L132.6,88z M141.9,87.2v0.6c0.4-0.6,1-0.6,1.2-0.6c1,0,1.6,0.7,1.6,1.9c0,1.1-0.6,2.1-1.7,2.1c-0.7,0-1-0.4-1.1-0.5v1.9h-1.2v-5.3 L141.9,87.2L141.9,87.2z M143.6,89.1c0-0.5-0.1-1.2-0.8-1.2c-0.4,0-0.9,0.3-0.9,1.3c0,0.2,0,1.2,0.8,1.2 C143.3,90.4,143.6,89.9,143.6,89.1L143.6,89.1z M20.8,74.6c0-0.5-0.1-0.6-0.4-0.6c-0.5,0-0.6,0.2-0.8,1.5C19.1,79.2,19,80,19,80.7 c0,1.1,3,2.3,4.7,2.3c4.8,0,9-4.1,9-9c0-5.9-6.2-8.5-6.2-13.2c0-2.8,1.9-5.3,4.9-5.3c0.7,0,1.5,0.2,2.1,0.8 c0.5,0.5,0.8,1.5,0.8,2.8c0,0.9-0.2,2-0.2,3c0,0.3,0.1,0.6,0.3,0.6c0.4,0,0.6-0.3,1.2-2.8c0.4-1.7,0.8-3.3,0.8-3.6 c0-0.2-2.1-1.5-4.6-1.5c-3.9,0-8,3.3-8,8c0,4.4,6.2,8,6.2,12.4c0,3.9-2.2,6.9-5.7,6.9c-0.8,0-1.9-0.4-2.5-1.1 C20.8,79.8,20.8,78.1,20.8,74.6L20.8,74.6z M44.5,63.8c-4,12-5.1,14.9-5.1,17.1c0,1,0.4,1.7,1.3,1.7c2.6,0,6.5-6.4,6.5-7.2 c0-0.2-0.1-0.3-0.3-0.3c-0.5,0-0.6,0.9-2,2.7c-1.2,1.6-1.8,2.3-2.3,2.3c-0.3,0-0.6-0.2-0.6-0.7c0-1.2,1.5-4.5,5.1-15.5h3.4l0.3-1 h-3.3c1.5-4.8,1.9-5.8,1.9-6.3c0-0.2,0-0.2-0.6-0.2c-1.9,0-1.9,0-2.2,0.8l-1.9,5.7h-2.8l-0.3,1h2.9V63.8z M61.4,67.4 c0.5-1.5,0.8-2.9,0.8-3.6c0-1.1-0.5-1.7-1.4-1.7c-1.3,0-2.7,1.3-4.3,3.4c-1.2,1.7-2.1,3.3-2.1,3.9c0,0.2,0.1,0.3,0.3,0.3 c0.6,0,0.3-0.6,2.2-3.2c1.1-1.4,1.5-1.8,2-1.8c0.3,0,0.5,0.2,0.5,0.6c0,0.6-0.2,1.4-1,3.4l-2.9,8c-0.6,1.7-1,3.1-1,4 s0.4,1.8,1.3,1.8c2.8,0,6.3-6.7,6.3-7.5c0-0.2-0.1-0.3-0.3-0.3c-0.4,0-0.4,0.6-1.2,1.8c-1.6,2.7-2.3,3.4-2.9,3.4 c-0.3,0-0.5-0.2-0.5-0.5c0-0.4,0.1-0.9,0.5-1.9L61.4,67.4L61.4,67.4z M61.2,57.4c0,0.8,0.4,1.5,1.1,1.5c1.1,0,2.1-1.5,2.1-2.9 c0-0.8-0.4-1.5-1.1-1.5C62.2,54.6,61.2,56,61.2,57.4L61.2,57.4z M73.1,63.8l-2.6,10.1c-3.7,14.3-4.2,16.5-6.4,16.5 c-0.7,0-1-0.4-1-1.4s-0.4-1.7-1.2-1.7c-0.7,0-1.3,0.5-1.3,1.6c0,1.8,1.3,2.5,2.7,2.5c5.3,0,7.2-6.5,10-17.8l2.4-9.9h3.6l0.3-1H76 l0.9-3.7c1-4,2.5-6.2,4.1-6.2c0.5,0,0.7,0.4,0.7,1.2c0,0.9,0.5,1.5,1.5,1.5c0.7,0,1.5-0.6,1.5-1.7c0-1.4-1.2-2-2.5-2 c-3.6,0-6.6,2.3-8.5,9.5l-0.4,1.5h-3l-0.3,1L73.1,63.8L73.1,63.8z M87.9,63.8c-4,12-5.1,14.9-5.1,17.1c0,1,0.4,1.7,1.3,1.7 c2.6,0,6.5-6.4,6.5-7.2c0-0.2-0.1-0.3-0.3-0.3c-0.5,0-0.6,0.9-2,2.7c-1.2,1.6-1.8,2.3-2.3,2.3c-0.3,0-0.6-0.2-0.6-0.7 c0-1.2,1.5-4.5,5.1-15.5H94l0.3-1H91c1.5-4.8,1.9-5.8,1.9-6.3c0-0.2,0-0.2-0.6-0.2c-1.9,0-1.9,0-2.2,0.8l-1.9,5.7h-2.8l-0.3,1h2.8 V63.8z M111.1,73c-1.2,3.6-2.2,6.3-2.2,8c0,0.8,0.4,1.5,1.3,1.5c3,0,7-6.4,7-7.1c0-0.3-0.2-0.4-0.4-0.4c-0.4,0-0.4,0.7-1.8,2.5 c-1.5,2-2.4,2.6-2.8,2.6c-0.3,0-0.5-0.3-0.5-0.6c0-1.9,5.6-15.9,5.6-16.4c0-0.3-0.2-0.4-1.2-0.4c-1.1,0-1.2,0.1-1.4,0.7 c-3.4,10.6-10.3,16.8-12.3,16.8c-0.5,0-0.9-0.2-0.9-0.9c0-2,5.3-12.9,5.3-15.2c0-1.4-0.5-1.9-1.6-1.9c-2.7,0-6.8,6.8-6.8,7.3 c0,0.2,0.1,0.3,0.4,0.3s0.6-0.8,2.1-2.8c0.9-1.3,2-2.5,2.8-2.5c0.3,0,0.4,0.3,0.4,0.6c0,1.6-5.3,12-5.3,15.4c0,1.3,0.7,2,1.9,2 C103.7,82.5,108.5,76.6,111.1,73L111.1,73L111.1,73z M126.2,82.2c0.5,0,0.5-0.1,0.8-0.9c0.4-1.4,2.4-5.8,3.6-8 c3.3-5.9,6.8-9.6,8.7-9.6c0.6,0,0.9,0.4,0.9,1.2c0,1.3-0.7,2.9-3.3,9.4c-1,2.6-1.7,4.9-1.7,6.2c0,1.1,0.4,2,1.8,2 c2.6,0,6.5-6.2,6.5-7.2c0-0.2-0.1-0.4-0.3-0.4c-0.4,0-0.3,0.8-2.2,3.1c-1.2,1.5-1.9,2.1-2.6,2.1c-0.3,0-0.5-0.2-0.5-0.7 c0-0.6,0.1-1.1,2-6.2c2.5-6.3,3-7.2,3-8.9c0-1.5-0.9-2.4-2.2-2.4c-4,0-8.8,6.9-10.3,9.9l-0.1-0.1c0.4-1.9,2-5.6,2-7.8 c0-1.2-0.5-2-1.8-2c-2.8,0-6.6,6.2-6.6,7c0,0.2,0.1,0.3,0.3,0.3c0.4,0,0.3-0.3,1.6-2.2c1.3-1.9,2.3-2.8,3-2.8 c0.5,0,0.7,0.3,0.7,0.9c0,1-1,4.3-2.8,9.5l-2.6,7.4h2.1V82.2z M167.9,63.2h-4.8c-0.6-0.4-1.8-1.1-3.4-1.1c-4.1,0-6.9,3.7-6.9,7.4 c0,2.3,0.6,3.7,1.4,4.7c-1.4,0.7-2.2,1.9-2.2,3.3c0,1.5,1,2.4,2.2,3v0.1c-2.7,0.5-6.5,1.8-6.5,5.1c0,3.8,3.6,5.8,7.7,5.8 c5.6,0,8.3-3.7,8.3-6.3c0-6.4-10.2-5.6-10.2-8.7c0-0.6,0.7-1.4,1.2-1.6c0.9,0.7,2.1,1.1,3.6,1.1c4,0,6.8-3.9,6.8-7.6 c0-1.3-0.3-2.5-0.8-3.7l3.4-0.2L167.9,63.2L167.9,63.2z M155.5,90.6c-2.6,0-5.5-1.8-5.5-4.6c0-3.1,2.5-4.4,4.9-5.1 c2.4,1.1,6.4,1.9,6.4,5.3C161.3,89.2,158.2,90.6,155.5,90.6L155.5,90.6z M162.7,66.7c0,3.1-2,8.5-4.9,8.5c-1.5,0-2.7-0.9-2.7-3.9 c0-4.3,2-8.5,4.6-8.5C161.6,62.8,162.7,64,162.7,66.7L162.7,66.7z"/> <path class="st1" d="M78.7,24.8L78.7,24.8c-0.1-0.3-0.3-0.5-0.7-0.5h-2c-1.4,0-2.1-0.4-3-0.9c-0.5-0.3-1.1-0.6-1.8-0.9 c-1-0.4-2.2-0.5-3.3-0.2l-7,1.8l-4.7-16l-0.6,0.4c-3.8,2.6-6.1,6.7-6.5,11.2L37,7.4l-0.1-0.1l-0.3,0.6c-3.6,7-2.5,15.7,2.7,21.6 L19,34.7l-0.2,0.1l3.1,1.7c5.7,3.1,11,7,15.6,11.6l0.3,0.3l0.4-0.3c9.6-7.2,20-13.4,30.9-18.3l9.3-4.2 C78.6,25.4,78.7,25.1,78.7,24.8z M41.1,30.1h0.2l-0.6-0.6c-5.2-5.4-6.6-13.6-3.5-20.4l17.4,17.5l0,0L68,23.1 c0.9-0.2,1.8-0.2,2.7,0.2c0.7,0.3,1.2,0.6,1.7,0.9c1,0.6,1.8,1,3.5,1.1h0.5l-7.9,3.6c-10.8,4.9-21.2,11-30.7,18.1 c-4.6-4.5-9.8-8.3-15.5-11.4l-0.8-0.4L41.1,30.1z M55,25.5l-4.9-4.9c0-4.3,2.1-8.4,5.5-11l4.3,14.6L55,25.5z"/> <g> <polygon class="st1" points="89.7,43.8 85.3,31.8 81.2,31.8 88,48.9 91.3,48.9 98.2,31.8 94.2,31.8 "/> <path class="st1" d="M108,31.5c-5.2,0-9,4-9,8.8l0,0c0,4.8,3.8,8.7,9,8.7s9-4,9-8.8l0,0C117,35.4,113.2,31.5,108,31.5z M113.1,40.4c0,2.9-2.1,5.3-5.1,5.3s-5.1-2.4-5.1-5.3l0,0c0-2.9,2.1-5.3,5.1-5.3C111,35,113.1,37.4,113.1,40.4L113.1,40.4z"/> <path class="st1" d="M128.3,42.2h3.8v2.4c-0.9,0.7-2.2,1-3.5,1c-3,0-5.1-2.3-5.1-5.4l0,0c0-2.9,2.2-5.3,4.9-5.3 c2,0,3.1,0.6,4.4,1.7l2.4-2.8c-1.8-1.5-3.6-2.3-6.7-2.3c-5.1,0-8.9,4-8.9,8.8l0,0c0,5,3.6,8.7,8.9,8.7c3.1,0,5.5-1.2,7.2-2.7V39 h-7.4V42.2z"/> <polygon class="st1" points="143,41.9 151,41.9 151,38.6 143,38.6 143,35.1 152.1,35.1 152.1,31.8 139.3,31.8 139.3,48.8 152.2,48.8 152.2,45.5 143,45.5 "/> <polygon class="st1" points="159.3,31.8 155.5,31.8 155.5,48.8 167.7,48.8 167.7,45.4 159.3,45.4 "/> </g> </g> </svg>